
<svg version="1.0" xmlns="http://www.w3.org/2000/svg" style="fill: #;transform: ;msFilter:;"
 width="24" height="" viewBox="0 0 512.000000 512.000000"
 preserveAspectRatio="xMidYMid meet">

<g transform="translate(0.000000,512.000000) scale(0.100000,-0.100000)"
fill="#000000" stroke="none" style="fill: #2940D3;transform: ;msFilter:;">
<path d="M2362 5058 c-88 -128 -122 -234 -122 -375 0 -139 20 -222 86 -349 30
-58 61 -129 69 -157 11 -40 55 -331 55 -369 0 -5 5 -8 10 -8 6 0 10 12 10 28
0 44 19 100 68 207 40 88 46 109 46 170 1 39 -3 80 -7 92 -14 40 18 16 57 -40
82 -120 84 -285 6 -479 -32 -79 -25 -79 63 2 149 136 216 346 163 508 -41 121
-160 250 -356 385 -62 43 -112 85 -123 105 -25 42 -26 159 -4 252 9 35 15 66
13 68 -2 2 -17 -16 -34 -40z"/>
<path d="M2157 4496 c-3 -20 -24 -76 -46 -125 -63 -139 -83 -208 -89 -302 -9
-163 49 -285 215 -446 l95 -93 -161 0 c-89 0 -161 -3 -160 -7 0 -5 51 -109
112 -233 l112 -225 325 0 325 0 112 225 c61 124 112 228 112 232 1 4 -55 9
-124 10 l-126 3 88 75 c66 57 95 90 117 134 38 74 46 162 21 238 -17 53 -94
188 -107 188 -7 0 -13 -46 -23 -179 -8 -103 -30 -147 -133 -254 -49 -51 -104
-119 -123 -150 l-34 -56 -76 -1 -76 0 -28 42 c-16 24 -61 84 -101 134 -103
130 -170 236 -183 292 -8 31 -11 125 -9 268 3 189 1 222 -13 242 l-16 23 -6
-35z"/>
<path d="M2060 2870 l0 -110 90 0 90 0 0 -27 c1 -16 43 -545 94 -1178 61 -751
90 -1151 83 -1154 -28 -11 -88 -77 -102 -116 -16 -40 -16 -45 -1 -77 17 -35
84 -99 180 -170 41 -31 52 -36 65 -26 72 55 185 155 206 182 43 57 32 104 -39
171 l-43 40 43 460 c95 1007 174 1832 179 1862 6 32 7 32 68 35 l62 3 3 108 3
107 -491 0 -490 0 0 -110z"/>
</g>
</svg>

